<svg width="48" height="48" viewBox="0 0 48 48" fill="none" xmlns="http://www.w3.org/2000/svg">
<g clip-path="url(#clip0_15_29)">
<path fill-rule="evenodd" clip-rule="evenodd" d="M37.479 40.104C33.7639 43.213 29.0881 44.9419 24.244 44.9977C19.4 45.0536 14.6856 43.433 10.8997 40.4105C7.11388 37.3881 4.48942 33.1497 3.47109 28.4135C2.45275 23.6774 3.10317 18.7349 5.31214 14.4234C7.5211 10.112 11.1527 6.69687 15.5917 4.75677C20.0306 2.81666 25.0037 2.4709 29.6684 3.77808C34.3331 5.08526 38.4024 7.96498 41.1867 11.9293C43.971 15.8935 45.2991 20.6985 44.946 25.53C45.978 25.629 46.986 25.971 47.871 26.514C48.458 20.9469 47.0804 15.3497 43.9766 10.6909C40.8728 6.03218 36.2382 2.60494 30.8745 1.00222C25.5109 -0.600492 19.7557 -0.277844 14.6048 1.91434C9.45393 4.10652 5.23138 8.03032 2.66779 13.0068C0.104206 17.9833 -0.639128 23.6994 0.566406 29.166C1.77194 34.6326 4.8505 39.5059 9.2694 42.9426C13.6883 46.3792 19.1695 48.1631 24.7647 47.9855C30.3599 47.8079 35.7169 45.68 39.909 41.97C39.0627 41.3968 38.2512 40.7737 37.479 40.104ZM26.286 30.444C25.1654 30.7128 24.0574 31.0311 22.965 31.398C22.7757 31.4677 22.5743 31.4985 22.3729 31.4886C22.1714 31.4787 21.974 31.4282 21.7925 31.3403C21.611 31.2523 21.4491 31.1286 21.3164 30.9766C21.1838 30.8247 21.0832 30.6475 21.0206 30.4557C20.9581 30.264 20.9348 30.0616 20.9523 29.8606C20.9697 29.6597 21.0275 29.4643 21.1222 29.2862C21.2169 29.1081 21.3466 28.9509 21.5034 28.8241C21.6602 28.6973 21.841 28.6034 22.035 28.548C23.175 28.173 24.441 27.786 25.611 27.519C26.721 27.261 27.951 27.06 28.92 27.195C29.4 27.261 30.102 27.45 30.603 28.053C31.167 28.731 31.164 29.544 30.996 30.168C30.7942 30.8115 30.4792 31.414 30.066 31.947C29.835 32.268 29.562 32.607 29.241 32.976C29.562 33.348 29.838 33.696 30.069 34.017C30.495 34.608 30.837 35.208 30.999 35.802C31.164 36.426 31.167 37.239 30.603 37.92C30.099 38.52 29.391 38.706 28.914 38.772C27.945 38.901 26.715 38.691 25.608 38.433C24.4031 38.1378 23.2111 37.7925 22.035 37.398C21.841 37.3426 21.6602 37.2487 21.5034 37.1219C21.3466 36.9951 21.2169 36.8379 21.1222 36.6598C21.0275 36.4817 20.9697 36.2863 20.9523 36.0854C20.9348 35.8844 20.9581 35.682 21.0206 35.4903C21.0832 35.2985 21.1838 35.1213 21.3164 34.9694C21.4491 34.8174 21.611 34.6937 21.7925 34.6057C21.974 34.5178 22.1714 34.4673 22.3729 34.4574C22.5743 34.4475 22.7757 34.4783 22.965 34.548C24.078 34.908 25.248 35.268 26.292 35.511C26.82 35.634 27.267 35.718 27.63 35.763C27.1687 35.1452 26.6655 34.5598 26.124 34.011C25.8544 33.7305 25.7044 33.3563 25.7055 32.9673C25.7066 32.5783 25.8588 32.2049 26.13 31.926C26.6693 31.3843 27.1705 30.8059 27.63 30.195C27.1781 30.2541 26.7295 30.3392 26.286 30.444ZM28.584 30.183L28.575 30.18L28.566 30.177C28.578 30.177 28.584 30.183 28.584 30.183ZM28.59 35.784L28.572 35.787C28.5778 35.7845 28.5838 35.7825 28.59 35.781V35.784ZM18 24C19.656 24 21 21.984 21 19.5C21 17.016 19.656 15 18 15C16.344 15 15 17.016 15 19.5C15 21.984 16.344 24 18 24ZM26.271 22.311C26.4432 22.4067 26.6325 22.4676 26.8282 22.4902C27.0239 22.5128 27.2221 22.4966 27.4115 22.4425C27.601 22.3885 27.7779 22.2976 27.9322 22.1752C28.0866 22.0528 28.2153 21.9012 28.311 21.729C28.5479 21.2867 28.8992 20.9161 29.3282 20.6559C29.7572 20.3958 30.2483 20.2556 30.75 20.25C31.767 20.25 32.685 20.82 33.189 21.729C33.3823 22.0767 33.7059 22.3334 34.0885 22.4425C34.471 22.5516 34.8813 22.5043 35.229 22.311C35.5767 22.1177 35.8333 21.7941 35.9425 21.4115C36.0516 21.029 36.0043 20.6187 35.811 20.271C35.3142 19.3613 34.5827 18.6013 33.6927 18.07C32.8026 17.5387 31.7865 17.2556 30.75 17.25C28.56 17.25 26.682 18.486 25.689 20.271C25.5933 20.4432 25.5324 20.6325 25.5098 20.8282C25.4872 21.0239 25.5034 21.2221 25.5575 21.4115C25.6115 21.601 25.7023 21.7779 25.8248 21.9322C25.9472 22.0866 26.0988 22.2153 26.271 22.311ZM42 29.484C45.33 26.064 53.652 32.052 42 39.75C30.348 32.052 38.67 26.064 42 29.487V29.484Z" fill="white"/>
</g>
<defs>
<clipPath id="clip0_15_29">
<rect width="48" height="48" fill="white"/>
</clipPath>
</defs>
</svg>
